# xmcd
#
# Track frame offsets:
#	150
#	12632
#	24232
#	37582
#	48312
#	65000
#	78742
#	92617
#	107632
#	118092
#	127957
#	137960
#	149687
#	162367
#	176347
#	190542
#	206505
#	217300
#	227422
#	246220
#
# Disc length: 3450
#
# Revision: 3
# Processed by: cddbd v1.5.1PL0 Copyright (c) Steve Scherf et al.
# Submitted via: MusicWizard 7.0.2
# Normalized: r2:TSWAP
#
DISCID=180d7814
DTITLE=Various Artist - Mega Country (4/10)
DYEAR=1997
DGENRE=Country
TTITLE0=Johnny Cash - I Walk The Line
TTITLE1=Patsy Cline - I've Loved And Lost Again
TTITLE2=Mickey Gilley - Roomful Of Roses
TTITLE3=Eddie Rabbitt - Two Dollars In The Jukebox
TTITLE4=Lee Greenwood - Ring On Her Finger, Time On Her Hands
TTITLE5=The Gatlin Brothers - Night Time Magic
TTITLE6=Janie Fricke - Somebody Else's Fire
TTITLE7=The Bellamy Brothers - Dancin' Cowboys
TTITLE8=Frankie Laine - Rawhide
TTITLE9=Merle Haggard - Mama Tried
TTITLE10=Live Performance - I'm Sorry
TTITLE11=Porter Wagoner - Misery Loves Company
TTITLE12=Leroy Van Dyke - The Auctioneer
TTITLE13=Stonewall Jackson - Don't Be Angry
TTITLE14=Nancy Peppers - The Words That Go Unspoken
TTITLE15=Johnny Lee - Lookin' For Love
TTITLE16=Eddy Raven - I Got Mexico
TTITLE17=Don Williams - Take My Hand For A While
TTITLE18=Doug Ashdown - Winter In America
TTITLE19=Billie Jo Spears - 57 Chevrolet
EXTD=
EXTT0=
EXTT1=
EXTT2=
EXTT3=
EXTT4=
EXTT5=
EXTT6=
EXTT7=
EXTT8=
EXTT9=
EXTT10=
EXTT11=
EXTT12=
EXTT13=
EXTT14=
EXTT15=
EXTT16=
EXTT17=
EXTT18=
EXTT19=
PLAYORDER=
